{"title":"Little.Boy.2015.WEBRip.480p.x264.AAC-VYTO [P2PDL]","uid":12198006,"size":400729699,"categoryP":"video","categoryS":"movies","magnet":"?xt=urn:btih:1710f9f162caa77ef950613354cfa403fa69b75e&amp;dn=Little.Boy.2015.WEBRip.480p.x264.AAC-VYTO+%5BP2PDL%5D&amp;tr=udp%3A%2F%2Ftracker.openbittorrent.com%3A80&amp;tr=udp%3A%2F%2Fopen.demonii.com%3A1337&amp;tr=udp%3A%2F%2Ftracker.coppersurfer.tk%3A6969&amp;tr=udp%3A%2F%2Fexodus.desync.com%3A6969","seeders":3,"leechers":1,"uploader":"ValidusVyto","files":7,"time":1438736017,"description":"____    ____ ____    ____ .___________.  ______   \n     /   /      /   / |           | /  __    \n    /   /      /   /  `---|  |----`|  |  |  | \n        /     _    _/       |  |     |  |  |  | \n       /        |  |         |  |     |  `--'  | \n    __/         |__|         |__|      ______/  \n                                                  \nPresenting Small Encodes with quality for years!\n                                                                                                   \n                                                                                                   \n\nLittle.Boy.2015.WEBRip.480p.x264.AAC-VYTO\n\n\nGenre: Comedy, Drama, War &lt;a href=&quot;\nhttp://www.imdb.com/title/tt1810683/&quot; rel=&quot;nofollow&quot; target=&quot;_NEW&quot;&gt;\nhttp://www.imdb.com/title/tt1810683/&lt;/a&gt;\n\n\nGeneral\nFormat                         : MPEG-4\nFile size                      : 377 MiB\nDuration                       : 1h 46mn\nOverall bit rate               : 493 Kbps\n\nVideo\nFormat                         : AVC\nBit rate                       : 458 Kbps\nWidth                          : 720 pixels\nHeight                         : 304 pixels\nDisplay aspect ratio           : 2.35:1\nFrame rate mode                : Constant\nFrame rate                     : 23.976 fps\nBit depth                      : 8 bits\nStream size                    : 350 MiB (93%)\nWriting library                : x264 core 146 r2538 121396c\n\nAudio\nFormat                         : AAC\nBit rate mode                  : Variable\nBit rate                       : 32.0 Kbps\nChannel(s)                     : 2 channels\nChannel positions              : Front: L R\nSampling rate                  : 48.0 KHz\nStream size                    : 24.4 MiB (6%)\nLanguage                       : English\n\nSubtitle                       : Yes\nSource                     \t   : 720p.WEB-DL.DD5.1.H264\t\t\t\n\n\nScreenshots:\n &lt;a href=&quot;\nhttp://ititli.com/viewimage/2K&quot; rel=&quot;nofollow&quot; target=&quot;_NEW&quot;&gt;\nhttp://ititli.com/viewimage/2K&lt;/a&gt; &lt;a href=&quot;\nhttp://ititli.com/viewimage/24&quot; rel=&quot;nofollow&quot; target=&quot;_NEW&quot;&gt;\nhttp://ititli.com/viewimage/24&lt;/a&gt; &lt;a href=&quot;\nhttp://ititli.com/viewimage/2s&quot; rel=&quot;nofollow&quot; target=&quot;_NEW&quot;&gt;\nhttp://ititli.com/viewimage/2s&lt;/a&gt; &lt;a href=&quot;\nhttp://ititli.com/viewimage/2Y&quot; rel=&quot;nofollow&quot; target=&quot;_NEW&quot;&gt;\nhttp://ititli.com/viewimage/2Y&lt;/a&gt; &lt;a href=&quot;\nhttp://ititli.com/viewimage/2U&quot; rel=&quot;nofollow&quot; target=&quot;_NEW&quot;&gt;\nhttp://ititli.com/viewimage/2U&lt;/a&gt; &lt;a href=&quot;\nhttp://ititli.com/viewimage/2h&quot; rel=&quot;nofollow&quot; target=&quot;_NEW&quot;&gt;\nhttp://ititli.com/viewimage/2h&lt;/a&gt; &lt;a href=&quot;\nhttp://ititli.com/viewimage/2M&quot; rel=&quot;nofollow&quot; target=&quot;_NEW&quot;&gt;\nhttp://ititli.com/viewimage/2M&lt;/a&gt; &lt;a href=&quot;\nhttp://ititli.com/viewimage/2H&quot; rel=&quot;nofollow&quot; target=&quot;_NEW&quot;&gt;\nhttp://ititli.com/viewimage/2H&lt;/a&gt; &lt;a href=&quot;\nhttp://ititli.com/viewimage/2G&quot; rel=&quot;nofollow&quot; target=&quot;_NEW&quot;&gt;\nhttp://ititli.com/viewimage/2G&lt;/a&gt; &lt;a href=&quot;\nhttp://ititli.com/viewimage/2o&quot; rel=&quot;nofollow&quot; target=&quot;_NEW&quot;&gt;\nhttp://ititli.com/viewimage/2o&lt;/a&gt; &lt;a href=&quot;\nhttp://ititli.com/viewimage/2k&quot; rel=&quot;nofollow&quot; target=&quot;_NEW&quot;&gt;\nhttp://ititli.com/viewimage/2k&lt;/a&gt; &lt;a href=&quot;\nhttp://ititli.com/viewimage/2j&quot; rel=&quot;nofollow&quot; target=&quot;_NEW&quot;&gt;\nhttp://ititli.com/viewimage/2j&lt;/a&gt;\n\n----------------------------------------------------------------------------------------------------\n\n\nEncoder Notes: Looking For Early Access To Anything You Can Provide DVDScr, R5, DVDR, BluRay, Direct\nAudio, Music Releases and Seedboxes. If You Got anything to offer please contact us.\n\nSupport us by donating BC - 1FgwdzPsd1y25Gea8wP1qni35uGCtmkRCD","torrent":{"xt":"urn:btih:1710f9f162caa77ef950613354cfa403fa69b75e","amp;dn":"Little.Boy.2015.WEBRip.480p.x264.AAC-VYTO+%5BP2PDL%5D","amp;tr":["udp%3A%2F%2Ftracker.openbittorrent.com%3A80","udp%3A%2F%2Fopen.demonii.com%3A1337","udp%3A%2F%2Ftracker.coppersurfer.tk%3A6969","udp%3A%2F%2Fexodus.desync.com%3A6969"],"infoHash":"1710f9f162caa77ef950613354cfa403fa69b75e","infoHashBuffer":{"type":"Buffer","data":[23,16,249,241,98,202,167,126,249,80,97,51,84,207,164,3,250,105,183,94]},"announce":[],"urlList":[]}}